<svg xmlns="http://www.w3.org/2000/svg" viewBox="0 0 1200 430" shape-rendering="crispEdges" preserveAspectRatio="xMidYMid slice">
  <rect width="1200" height="430" fill="#86b8da"/>
  <rect y="105" width="1200" height="90" fill="#78a7c8"/>

  <!-- blocky clouds -->
  <g fill="#dcecf6">
    <rect x="120" y="58" width="62" height="18"/><rect x="140" y="42" width="28" height="20"/><rect x="180" y="68" width="55" height="14"/>
    <rect x="655" y="50" width="120" height="17"/><rect x="688" y="34" width="40" height="20"/><rect x="748" y="61" width="62" height="13"/>
    <rect x="808" y="91" width="52" height="12"/><rect x="826" y="80" width="22" height="13"/>
  </g>

  <!-- mountains -->
  <path d="M0 230 160 102 255 214 360 118 466 224 560 145 668 228 758 116 872 224 974 142 1090 226 1200 126 1200 280 0 280Z" fill="#658dad"/>
  <path d="M0 253 155 146 238 236 348 155 438 242 540 177 642 244 749 151 852 239 959 174 1064 242 1200 164 1200 286 0 286Z" fill="#739bb8"/>
  <path d="M0 270 180 198 318 266 452 206 580 274 714 212 850 270 1000 203 1200 265 1200 310 0 310Z" fill="#5c8197"/>

  <!-- distant lake -->
  <rect x="470" y="244" width="260" height="36" fill="#6f9fbf"/>
  <rect x="492" y="252" width="210" height="7" fill="#9cc5dd"/>

  <!-- ruin -->
  <g fill="#667b82">
    <rect x="780" y="190" width="20" height="88"/><rect x="818" y="190" width="20" height="88"/><rect x="795" y="210" width="28" height="12"/>
    <rect x="770" y="184" width="18" height="18"/><rect x="830" y="184" width="18" height="18"/><rect x="798" y="184" width="17" height="18"/>
  </g>

  <!-- forest back line -->
  <path d="M0 270 0 206 38 206 38 170 72 170 72 208 112 208 112 180 146 180 146 220 180 220 180 188 214 188 214 226 252 226 252 194 288 194 288 232 324 232 324 205 356 205 356 245 0 300Z" fill="#315c5c"/>
  <path d="M1200 276 1200 196 1162 196 1162 164 1128 164 1128 205 1090 205 1090 178 1056 178 1056 217 1016 217 1016 188 982 188 982 228 944 228 944 194 910 194 910 236 876 236 876 208 846 208 846 248 1200 303Z" fill="#315c5c"/>

  <!-- foreground tree trunks -->
  <g fill="#755344">
    <rect x="78" y="210" width="30" height="116"/><rect x="250" y="225" width="24" height="92"/><rect x="930" y="214" width="26" height="106"/><rect x="1078" y="224" width="28" height="96"/>
  </g>

  <!-- foreground tree crowns -->
  <g fill="#3e755e">
    <rect x="22" y="170" width="118" height="54"/><rect x="42" y="146" width="82" height="36"/><rect x="4" y="196" width="152" height="38"/>
    <rect x="196" y="190" width="110" height="48"/><rect x="218" y="168" width="72" height="32"/>
    <rect x="870" y="176" width="126" height="58"/><rect x="896" y="150" width="88" height="38"/><rect x="842" y="207" width="170" height="34"/>
    <rect x="1018" y="186" width="132" height="54"/><rect x="1046" y="162" width="86" height="34"/>
  </g>
  <g fill="#5b8f64">
    <rect x="34" y="154" width="56" height="24"/><rect x="88" y="176" width="46" height="24"/><rect x="214" y="180" width="54" height="24"/>
    <rect x="890" y="162" width="58" height="24"/><rect x="948" y="184" width="42" height="22"/><rect x="1052" y="174" width="60" height="24"/>
  </g>

  <!-- ground -->
  <rect y="286" width="1200" height="144" fill="#79a65f"/>
  <path d="M0 355 C210 320 360 318 520 326 C670 334 820 318 1200 344 L1200 430 0 430Z" fill="#aa9468"/>
  <path d="M0 382 C260 350 425 354 600 362 C770 370 930 352 1200 370 L1200 430 0 430Z" fill="#b79b6b"/>

  <!-- grass pixels -->
  <g fill="#5d8d55">
    <rect x="12" y="302" width="78" height="11"/><rect x="134" y="324" width="44" height="9"/><rect x="220" y="300" width="62" height="10"/>
    <rect x="326" y="336" width="54" height="9"/><rect x="418" y="305" width="46" height="8"/><rect x="704" y="310" width="56" height="9"/>
    <rect x="810" y="330" width="48" height="9"/><rect x="918" y="301" width="66" height="10"/><rect x="1080" y="320" width="72" height="10"/>
  </g>

  <!-- rocks -->
  <g fill="#788990">
    <path d="M20 316 48 284 92 286 118 318 108 344 28 344Z"/><path d="M140 332 160 304 198 305 220 333 210 352 148 352Z"/>
    <path d="M1010 319 1040 286 1086 290 1110 321 1098 345 1020 345Z"/><path d="M1110 338 1134 312 1174 314 1196 340 1184 358 1120 358Z"/>
  </g>
  <g fill="#94a2a5">
    <rect x="46" y="298" width="38" height="10"/><rect x="160" y="316" width="28" height="8"/><rect x="1042" y="300" width="38" height="10"/><rect x="1140" y="324" width="28" height="8"/>
  </g>

  <!-- path detail -->
  <g fill="#8f7d59">
    <rect x="470" y="348" width="68" height="10"/><rect x="618" y="382" width="52" height="9"/><rect x="760" y="350" width="72" height="9"/>
    <rect x="270" y="390" width="58" height="8"/><rect x="930" y="396" width="64" height="8"/>
  </g>

  <!-- bottom grass edge -->
  <g fill="#4d7f4e">
    <rect x="0" y="414" width="1200" height="16"/>
    <rect x="20" y="402" width="18" height="12"/><rect x="54" y="398" width="14" height="16"/><rect x="96" y="404" width="20" height="10"/>
    <rect x="1040" y="402" width="16" height="12"/><rect x="1082" y="396" width="18" height="18"/><rect x="1144" y="404" width="20" height="10"/>
  </g>
</svg>
