<svg xmlns="http://www.w3.org/2000/svg" viewBox="0 0 900 1600" role="img" aria-label="Calm home training studio"><defs><linearGradient id="w" x1="0" y1="0" x2="0" y2="1"><stop stop-color="#123548"/><stop offset=".55" stop-color="#1a5264"/><stop offset="1" stop-color="#173943"/></linearGradient><linearGradient id="f" x1="0" y1="0" x2="0" y2="1"><stop stop-color="#305f62"/><stop offset="1" stop-color="#102d35"/></linearGradient></defs><rect width="900" height="1600" fill="url(#w)"/><rect x="84" y="120" width="732" height="430" rx="42" fill="#87bdb2" opacity=".15"/><rect x="111" y="148" width="678" height="376" rx="28" fill="#7fb5b0" opacity=".18"/><path d="M0 950L900 815v785H0z" fill="url(#f)"/><g opacity=".56" stroke="#b9d6c4" stroke-width="16" fill="none" stroke-linecap="round"><path d="M110 1070V690M310 1070V690M110 720h200M144 855h132"/><path d="M630 1080V750M784 1080V750M630 780h154M652 920h110"/></g><g fill="#132c35" opacity=".86"><rect x="123" y="817" width="174" height="26" rx="13"/><rect x="644" y="882" width="128" height="26" rx="13"/></g><g transform="translate(350 1110)" opacity=".75"><rect x="0" y="82" width="230" height="34" rx="17" fill="#c0b18b"/><rect x="28" y="110" width="22" height="115" rx="11" fill="#8f846b"/><rect x="180" y="110" width="22" height="115" rx="11" fill="#8f846b"/><rect x="65" y="20" width="100" height="66" rx="20" fill="#24454c"/></g><g transform="translate(70 1270)" opacity=".78"><circle cx="55" cy="55" r="35" fill="#0f2933"/><circle cx="170" cy="55" r="35" fill="#0f2933"/><rect x="55" y="43" width="115" height="24" rx="12" fill="#92b7a1"/></g><g transform="translate(680 1270)" opacity=".65"><circle cx="0" cy="0" r="42" fill="#c7d48b"/><circle cx="84" cy="15" r="31" fill="#70a98e"/></g><rect y="1400" width="900" height="200" fill="#0d2933" opacity=".28"/></svg>