<svg xmlns="http://www.w3.org/2000/svg" viewBox="0 0 900 1200" role="img" aria-label="Cozy companion habitat">
  <defs>
    <linearGradient id="wall" x1="0" y1="0" x2="0" y2="1"><stop offset="0" stop-color="#174a5b"/><stop offset="1" stop-color="#0c2b38"/></linearGradient>
    <linearGradient id="window" x1="0" y1="0" x2="0" y2="1"><stop offset="0" stop-color="#7bc0bb"/><stop offset="1" stop-color="#d9d5a8"/></linearGradient>
    <linearGradient id="floor" x1="0" y1="0" x2="0" y2="1"><stop offset="0" stop-color="#2a665d"/><stop offset="1" stop-color="#123b38"/></linearGradient>
    <radialGradient id="lamp" cx="50%" cy="50%" r="50%"><stop offset="0" stop-color="#f3dfa0" stop-opacity=".7"/><stop offset="1" stop-color="#f3dfa0" stop-opacity="0"/></radialGradient>
  </defs>
  <rect width="900" height="1200" fill="url(#wall)"/>
  <rect x="116" y="110" width="668" height="400" rx="42" fill="#102c38" stroke="#7eb4a6" stroke-opacity=".22" stroke-width="8"/>
  <rect x="140" y="134" width="620" height="352" rx="27" fill="url(#window)"/>
  <path d="M140 380L260 278l96 80 112-125 130 140 92-86 70 72v127H140z" fill="#2f6870" opacity=".78"/>
  <path d="M140 406c130-38 220-14 316 14 112 32 191 24 304-10v76H140z" fill="#4d9b9a" opacity=".8"/>
  <path d="M0 670c200-72 390-58 540-28 151 31 246 9 360-26v584H0z" fill="url(#floor)"/>
  <ellipse cx="450" cy="920" rx="290" ry="170" fill="#d3c69b" opacity=".34"/>
  <ellipse cx="450" cy="910" rx="230" ry="125" fill="#7eb49a" opacity=".28"/>
  <g transform="translate(70 612)">
    <rect x="0" y="86" width="180" height="24" rx="12" fill="#d9cfa6" opacity=".82"/>
    <rect x="18" y="0" width="18" height="92" rx="9" fill="#d9cfa6" opacity=".72"/>
    <rect x="145" y="0" width="18" height="92" rx="9" fill="#d9cfa6" opacity=".72"/>
    <rect x="12" y="22" width="156" height="16" rx="8" fill="#d9cfa6" opacity=".72"/>
    <circle cx="62" cy="4" r="34" fill="#4c8d65"/><circle cx="92" cy="8" r="30" fill="#62a878"/>
    <path d="M75 52c-7-25-4-49 14-72M78 44c18-28 39-42 59-46" stroke="#8cc38f" stroke-width="10" stroke-linecap="round" fill="none"/>
  </g>
  <g transform="translate(700 655)">
    <circle cx="0" cy="0" r="120" fill="url(#lamp)"/>
    <path d="M-36 18h72l20 58h-112z" fill="#f0d99a" opacity=".85"/>
    <rect x="-7" y="75" width="14" height="92" rx="7" fill="#d8c894"/>
    <ellipse cx="0" cy="168" rx="46" ry="10" fill="#d8c894"/>
  </g>
  <g transform="translate(670 960)">
    <ellipse cx="0" cy="30" rx="92" ry="35" fill="#153c42" opacity=".65"/>
    <ellipse cx="0" cy="0" rx="78" ry="34" fill="#6ab7a8"/>
    <ellipse cx="0" cy="-3" rx="62" ry="22" fill="#bfe3d4" opacity=".65"/>
  </g>
  <g transform="translate(150 945)">
    <ellipse cx="0" cy="24" rx="110" ry="42" fill="#173743" opacity=".7"/>
    <ellipse cx="0" cy="0" rx="96" ry="52" fill="#d5b987"/>
    <ellipse cx="0" cy="-4" rx="72" ry="36" fill="#e9d7aa"/>
  </g>
  <g opacity=".7" fill="#d8e6bf"><circle cx="350" cy="725" r="6"/><circle cx="386" cy="690" r="4"/><circle cx="527" cy="740" r="5"/><circle cx="588" cy="700" r="4"/></g>
</svg>